<svg width="512" height="512" viewBox="0 0 512.007 512.007" xmlns="http://www.w3.org/2000/svg"><g><path d="m256.004 430.502c-5.682 0-10.876-3.21-13.416-8.292-42.277-84.553-190.166-56.293-191.653-55.997-8.124 1.61-16.019-3.662-17.636-11.782s3.645-16.014 11.764-17.638c1.719-.344 42.646-8.374 90.241-4.234 54.444 4.734 95.63 23.666 120.7 55.178 25.07-31.512 66.256-50.443 120.7-55.178 47.592-4.143 88.521 3.891 90.241 4.234 8.124 1.625 13.392 9.527 11.768 17.65-1.626 8.124-9.527 13.388-17.65 11.768-1.479-.294-149.366-28.555-191.643 55.999-2.54 5.082-7.735 8.292-13.416 8.292z" fill="#e2dff4"/><path d="m269.42 422.21c42.276-84.554 190.164-56.293 191.643-55.999 8.123 1.62 16.024-3.644 17.65-11.768 1.624-8.123-3.644-16.025-11.768-17.65-1.72-.344-42.649-8.377-90.241-4.234-54.444 4.734-95.63 23.666-120.7 55.178v42.766c5.681-.001 10.876-3.211 13.416-8.293z" fill="#bebcdd"/><path d="m486.554 427.862c-1.03-4.13-3.77-7.62-7.53-9.62-5.69-3.01-136.19-70.95-223.02-20.521-86.83-50.42-217.33 17.51-223.02 20.521-3.76 2-6.5 5.49-7.53 9.62l-13.49 53.93 15.934 11.306 166.468-43.234s64 96.681 120.851 0l184.827 47.628.655-15.528z" fill="#f9f9f9"/><path d="m500.044 481.797-13.488-53.935c-1.032-4.129-3.771-7.625-7.533-9.617-5.691-3.014-136.186-70.948-223.019-20.525v106.782c29.811 0 56.382-18.416 69.857-44.024l167.447 45.563 7.399-24.073z" fill="#e2dff4"/><path d="m497.014 511.506c-1.224 0-2.466-.151-3.706-.466l-167.446-42.563c-13.477 25.608-40.048 42.024-69.858 42.024s-56.382-16.416-69.858-42.024l-167.447 42.563c-8.034 2.039-16.193-2.814-18.233-10.843s2.813-16.192 10.843-18.233l179.95-45.74c7.718-1.963 15.612 2.442 18.002 10.03 6.454 20.485 25.238 34.248 46.743 34.248s40.289-13.763 46.743-34.248c2.39-7.588 10.286-11.99 18.002-10.03l179.95 45.74c8.029 2.041 12.883 10.204 10.843 18.233-1.726 6.788-7.83 11.308-14.528 11.309z" fill="#bc8173"/><path d="m325.862 468.477 167.446 42.563c1.24.314 2.482.466 3.706.466 6.697-.001 12.802-4.521 14.527-11.309 2.04-8.029-2.813-16.192-10.843-18.233l-179.95-45.74c-7.716-1.96-15.612 2.442-18.002 10.03-6.454 20.485-25.238 34.248-46.743 34.248v30c29.811 0 56.383-16.416 69.859-42.025z" fill="#865240"/><path d="m484.004 36.502h-13v-13c0-8.284-6.716-15-15-15s-15 6.716-15 15v13h-13c-8.284 0-15 6.716-15 15s6.716 15 15 15h13v13c0 8.284 6.716 15 15 15s15-6.716 15-15v-13h13c8.284 0 15-6.716 15-15s-6.716-15-15-15z" fill="#31bebe"/><path d="m336.01 294.506c-5.875 0-11.451-3.474-13.852-9.234-3.187-7.647.43-16.43 8.076-19.615l96-40c7.646-3.189 16.429.43 19.615 8.076 3.187 7.647-.43 16.43-8.076 19.615l-96 40c-1.886.786-3.841 1.158-5.763 1.158z" fill="#fabe2c"/><path d="m288.016 278.506c-1.15 0-2.318-.134-3.487-.412-8.059-1.919-13.036-10.007-11.117-18.066l40-168c1.919-8.059 10.002-13.035 18.066-11.117 8.059 1.919 13.036 10.007 11.117 18.066l-40 168c-1.64 6.89-7.792 11.529-14.579 11.529z" fill="#fabe2c"/><path d="m223.985 278.504c-7.345 0-13.762-5.398-14.831-12.881l-16-112c-1.171-8.201 4.527-15.799 12.729-16.971 8.19-1.174 15.799 4.527 16.971 12.729l16 112c1.171 8.201-4.527 15.799-12.729 16.971-.719.102-1.434.152-2.14.152z" fill="#fed843"/><path d="m160.004 294.502c-3.839 0-7.678-1.465-10.606-4.394l-96-96c-5.858-5.857-5.858-15.355 0-21.213 5.857-5.857 15.355-5.857 21.213 0l96 96c5.858 5.857 5.858 15.355 0 21.213-2.93 2.929-6.768 4.394-10.607 4.394z" fill="#fed843"/><circle cx="24.004" cy="271.503" fill="#5ed8d3" r="15"/><circle cx="256.004" cy="63.501" fill="#fed843" r="15"/><circle cx="392.004" cy="151.5" fill="#ad77e3" r="15"/><path d="m271.004 63.501c0-8.285-6.716-15-15-15v30c8.284 0 15-6.716 15-15z" fill="#fabe2c"/><path d="m48.004 94.502c-25.916 0-47-21.084-47-47s21.084-47 47-47 47 21.084 47 47-21.084 47-47 47z" fill="#f66"/></g></svg>