<svg xmlns="http://www.w3.org/2000/svg" version="1.0" preserveAspectRatio="xMidYMid meet" viewBox="89 31.17 116.25 119.93" height="512" width="499">
	<g transform="translate(0.000000,193.000000) scale(0.100000,-0.100000)" fill="#000000" stroke="none">
		<path fill="#007bff" d="M1538 1613 l-68 -4 0 -64 c0 -74 -10 -70 123 -59 l77 7 0 51 c0 56 -13 77 -44 74 -12 -1 -51 -3 -88 -5z"></path>
		<path fill="#007bff" d="M890 1415 l0 -65 100 0 101 0 -3 63 -3 62 -97 3 -98 3 0 -66z"></path>
		<path fill="#007bff" d="M1815 1418 c-38 -5 -74 -13 -79 -18 -5 -5 -5 -34 -1 -66 l7 -57 66 7 c113 11 133 16 128 35 -2 9 -7 37 -11 64 -7 52 1 50 -110 35z"></path>
		<path fill="#007bff" d="M1510 1413 l-35 -4 14 -431 15 -431 94 6 c52 4 97 9 100 11 4 5 -13 572 -24 754 l-6 102 -61 -2 c-34 -1 -78 -3 -97 -5z"></path>
		<path fill="#007bff" d="M1167 1344 c-4 -4 -7 -34 -7 -66 l0 -58 130 0 131 0 -3 63 -3 62 -121 3 c-66 1 -123 -1 -127 -4z"></path>
		<path fill="#007bff" d="M1823 1218 c-67 -9 -73 -12 -68 -31 3 -12 28 -186 56 -387 28 -201 54 -369 59 -373 8 -9 170 11 182 22 4 3 -18 177 -48 385 -30 209 -54 383 -54 388 0 10 -30 9 -127 -4z"></path>
		<path fill="#007bff" d="M892 788 l3 -363 95 0 95 0 3 363 2 362 -100 0 -100 0 2 -362z"></path>
		<path fill="#007bff" d="M1160 750 l0 -331 128 3 127 3 3 328 2 327 -130 0 -130 0 0 -330z"></path>
		<path fill="#007bff" d="M1558 483 c-46 -4 -48 -6 -48 -34 l0 -29 94 0 c56 0 98 4 101 11 4 5 4 21 1 35 -7 26 -18 27 -148 17z"></path>
	</g>
</svg>