<?xml version="1.0" standalone="no"?>
<!DOCTYPE svg PUBLIC "-//W3C//DTD SVG 20010904//EN"
 "http://www.w3.org/TR/2001/REC-SVG-20010904/DTD/svg10.dtd">
<svg version="1.0" xmlns="http://www.w3.org/2000/svg"
 width="512.000000pt" height="512.000000pt" viewBox="0 0 512.000000 512.000000"
 preserveAspectRatio="xMidYMid meet">
<metadata>
Created by potrace 1.14, written by Peter Selinger 2001-2017
</metadata>
<g transform="translate(0.000000,512.000000) scale(0.100000,-0.100000)"
fill="#000000" stroke="none">
<path d="M388 5103 c-230 -47 -392 -257 -375 -488 9 -120 45 -200 129 -290
123 -132 301 -179 475 -127 121 37 217 117 277 232 107 203 53 444 -131 588
-105 82 -239 113 -375 85z"/>
<path d="M4515 5027 c-74 -24 -105 -82 -105 -195 l0 -78 -77 0 c-132 2 -198
-48 -198 -149 0 -100 60 -148 189 -150 l81 -1 5 -91 c4 -72 10 -98 26 -120 56
-75 157 -88 222 -29 38 34 46 56 52 151 l5 89 81 1 c89 1 131 18 168 68 29 39
29 125 0 164 -38 51 -83 69 -173 67 l-81 -1 0 78 c0 43 -5 90 -11 106 -28 74
-110 114 -184 90z"/>
<path d="M2527 4631 c-44 -10 -95 -57 -108 -100 -25 -83 23 -169 104 -190 130
-32 232 102 166 219 -32 57 -98 86 -162 71z"/>
<path d="M3232 4307 c-58 -18 -87 -63 -116 -184 -14 -59 -46 -193 -71 -298
-25 -104 -47 -199 -49 -210 -3 -11 -22 -94 -45 -185 -33 -136 -188 -781 -195
-815 -33 -147 -31 -177 15 -230 27 -31 41 -37 105 -49 29 -6 97 27 122 58 14
18 38 99 73 244 113 472 138 578 143 602 2 14 23 102 46 195 22 94 58 244 80
335 92 383 95 398 79 443 -26 75 -109 117 -187 94z"/>
<path d="M2032 3747 c-42 -13 -89 -67 -98 -112 -3 -20 3 -98 16 -182 12 -82
23 -161 25 -178 2 -16 7 -48 10 -70 4 -22 8 -51 10 -65 3 -14 7 -45 10 -70 3
-25 7 -54 9 -65 2 -12 8 -48 12 -80 4 -33 8 -62 9 -65 1 -3 5 -34 9 -70 5 -36
10 -72 11 -80 7 -38 20 -130 30 -200 13 -98 38 -137 105 -162 38 -15 49 -15
97 -4 40 9 90 65 98 109 4 19 -1 85 -10 148 -28 193 -33 228 -40 289 -3 25 -8
52 -10 60 -2 8 -7 40 -10 70 -3 30 -8 62 -10 70 -2 8 -7 42 -10 75 -4 32 -8
62 -10 65 -2 3 -6 34 -10 70 -4 36 -8 67 -10 70 -2 3 -6 34 -10 70 -3 35 -8
67 -10 70 -1 3 -6 32 -9 65 -12 105 -54 160 -132 174 -22 4 -54 3 -72 -2z"/>
<path d="M3858 3737 c-60 -32 -83 -67 -83 -132 0 -148 179 -203 269 -82 29 39
29 125 0 164 -47 63 -121 83 -186 50z"/>
<path d="M582 3420 c-72 -32 -106 -105 -84 -178 9 -29 120 -146 517 -542 535
-535 533 -534 613 -522 48 7 108 67 117 116 16 82 20 77 -513 610 -275 275
-511 505 -525 513 -41 21 -82 22 -125 3z"/>
<path d="M4290 2873 c-8 -2 -24 -8 -35 -13 -11 -5 -234 -98 -495 -206 -294
-122 -486 -206 -503 -222 -53 -50 -60 -140 -15 -197 27 -35 90 -63 129 -59 24
3 252 93 414 164 22 9 168 70 325 135 166 69 297 129 313 144 34 31 52 87 43
135 -9 45 -58 103 -94 110 -52 12 -67 13 -82 9z"/>
<path d="M195 2547 c-102 -33 -136 -160 -64 -242 82 -93 239 -43 256 81 14
105 -92 194 -192 161z"/>
<path d="M937 1804 c-1 -1 -51 -4 -112 -8 -60 -3 -126 -8 -145 -11 -19 -2 -57
-7 -85 -10 -118 -14 -188 -34 -217 -62 -92 -88 -37 -245 89 -255 23 -2 121 10
233 28 59 9 256 18 395 17 205 0 312 -11 501 -48 114 -23 234 -60 338 -105 25
-10 46 -21 46 -22 0 -2 -75 -3 -167 -3 -180 0 -265 -6 -408 -30 -314 -53 -621
-149 -945 -295 -121 -55 -173 -87 -191 -121 -5 -11 -41 -145 -80 -297 -38
-152 -73 -278 -78 -280 -31 -10 -78 -52 -93 -82 -44 -87 6 -187 104 -209 28
-7 90 6 309 61 151 39 317 80 369 93 52 13 165 42 250 64 484 124 794 201 804
200 6 0 34 -35 61 -76 32 -50 78 -100 129 -144 282 -240 681 -258 981 -44 85
60 208 200 228 258 2 7 118 -18 323 -70 256 -65 856 -218 1308 -333 112 -28
163 -14 214 60 45 67 20 155 -58 208 -29 19 -38 34 -51 85 -9 34 -39 152 -68
262 -67 262 -73 273 -170 324 -194 100 -532 224 -783 285 -254 63 -402 81
-650 81 -97 0 -171 3 -165 7 25 16 196 78 267 98 297 79 721 95 1099 40 141
-20 163 -19 208 16 80 61 85 163 11 232 -32 29 -64 38 -207 57 -243 32 -541
40 -771 21 -266 -22 -526 -90 -735 -191 -156 -76 -255 -145 -369 -258 l-99
-98 -71 74 c-90 93 -124 121 -215 182 -106 70 -248 137 -386 183 -103 34 -156
48 -305 77 -35 7 -97 15 -240 31 -57 6 -397 13 -403 8z"/>
</g>
</svg>
